HIERARCHY
ROOT Haolin_V1:Solving:Hips
{
	OFFSET 0.000000 0.000000 0.000000
	CHANNELS 6 Xposition Yposition Zposition Xrotation Yrotation Zrotation
	JOINT Haolin_V1:Solving:Spine
	{
		OFFSET 0.000000 -12.731938 2.520517
		CHANNELS 6 Xposition Yposition Zposition Xrotation Yrotation Zrotation
		JOINT Haolin_V1:Solving:Spine1
		{
			OFFSET 0.000000 -8.486854 1.496462
			CHANNELS 6 Xposition Yposition Zposition Xrotation Yrotation Zrotation
			JOINT Haolin_V1:Solving:Spine2
			{
				OFFSET 0.000000 -8.584984 0.751091
				CHANNELS 6 Xposition Yposition Zposition Xrotation Yrotation Zrotation
				JOINT Haolin_V1:Solving:Spine3
				{
					OFFSET 0.000000 -8.617775 0.000000
					CHANNELS 6 Xposition Yposition Zposition Xrotation Yrotation Zrotation
					JOINT Haolin_V1:Solving:Neck
					{
						OFFSET 0.000000 -11.080002 -1.107998
						CHANNELS 6 Xposition Yposition Zposition Xrotation Yrotation Zrotation
						JOINT Haolin_V1:Solving:Neck1
						{
							OFFSET 0.000000 -8.314011 -0.727381
							CHANNELS 6 Xposition Yposition Zposition Xrotation Yrotation Zrotation
							JOINT Haolin_V1:Solving:Head
							{
								OFFSET 0.000000 -8.218975 -1.449226
								CHANNELS 6 Xposition Yposition Zposition Xrotation Yrotation Zrotation
								JOINT Haolin_V1:Solving:HeadEnd
								{
									OFFSET 0.000000 -9.728081 0.000002
									CHANNELS 6 Xposition Yposition Zposition Xrotation Yrotation Zrotation
									End Site
									{
										OFFSET 0.000000 -9.728081 0.000002
									}
								}
							}
						}
					}
					JOINT Haolin_V1:Solving:RightShoulder
					{
						OFFSET 0.000000 -7.914288 -5.288076
						CHANNELS 6 Xposition Yposition Zposition Xrotation Yrotation Zrotation
						JOINT Haolin_V1:Solving:RightArm
						{
							OFFSET -20.201836 -0.000008 0.000000
							CHANNELS 6 Xposition Yposition Zposition Xrotation Yrotation Zrotation
							JOINT Haolin_V1:Solving:RightForeArm
							{
								OFFSET -29.446457 -0.000008 0.000000
								CHANNELS 6 Xposition Yposition Zposition Xrotation Yrotation Zrotation
								JOINT Haolin_V1:Solving:RightHand
								{
									OFFSET -23.111885 -0.000008 0.000000
									CHANNELS 6 Xposition Yposition Zposition Xrotation Yrotation Zrotation
									JOINT Haolin_V1:Solving:RightHandThumb1
									{
										OFFSET -3.824379 2.925484 -2.843767
										CHANNELS 6 Xposition Yposition Zposition Xrotation Yrotation Zrotation
										End Site
										{
											OFFSET -5.557076 0.000000 -5.608460
										}
									}
									JOINT Haolin_V1:Solving:RightHandMiddle1
									{
										OFFSET -10.198334 -0.000004 0.065374
										CHANNELS 6 Xposition Yposition Zposition Xrotation Yrotation Zrotation
										End Site
										{
											OFFSET -7.895309 -0.000004 0.000000
										}
									}
								}
							}
						}
					}
					JOINT Haolin_V1:Solving:LeftShoulder
					{
						OFFSET 0.000000 -7.914288 -5.288076
						CHANNELS 6 Xposition Yposition Zposition Xrotation Yrotation Zrotation
						JOINT Haolin_V1:Solving:LeftArm
						{
							OFFSET 20.201836 -0.000008 0.000000
							CHANNELS 6 Xposition Yposition Zposition Xrotation Yrotation Zrotation
							JOINT Haolin_V1:Solving:LeftForeArm
							{
								OFFSET 29.446457 -0.000008 0.000000
								CHANNELS 6 Xposition Yposition Zposition Xrotation Yrotation Zrotation
								JOINT Haolin_V1:Solving:LeftHand
								{
									OFFSET 23.111885 -0.000008 0.000000
									CHANNELS 6 Xposition Yposition Zposition Xrotation Yrotation Zrotation
									JOINT Haolin_V1:Solving:LeftHandThumb1
									{
										OFFSET 3.824379 2.925484 -2.843767
										CHANNELS 6 Xposition Yposition Zposition Xrotation Yrotation Zrotation
										End Site
										{
											OFFSET 5.557076 0.000000 -5.608460
										}
									}
									JOINT Haolin_V1:Solving:LeftHandMiddle1
									{
										OFFSET 10.198334 -0.000004 0.065374
										CHANNELS 6 Xposition Yposition Zposition Xrotation Yrotation Zrotation
										End Site
										{
											OFFSET 7.895309 -0.000004 0.000000
										}
									}
								}
							}
						}
					}
				}
			}
		}
	}
	JOINT Haolin_V1:Solving:RightUpLeg
	{
		OFFSET -10.695510 0.000000 0.000000
		CHANNELS 6 Xposition Yposition Zposition Xrotation Yrotation Zrotation
		JOINT Haolin_V1:Solving:RightLeg
		{
			OFFSET 0.000000 46.236332 -0.000006
			CHANNELS 6 Xposition Yposition Zposition Xrotation Yrotation Zrotation
			JOINT Haolin_V1:Solving:RightFoot
			{
				OFFSET 0.000000 41.248135 -0.000006
				CHANNELS 6 Xposition Yposition Zposition Xrotation Yrotation Zrotation
				JOINT Haolin_V1:Solving:RightForeFoot
				{
					OFFSET 0.000000 3.207336 -0.000000
					CHANNELS 6 Xposition Yposition Zposition Xrotation Yrotation Zrotation
					JOINT Haolin_V1:Solving:RightToeBase
					{
						OFFSET 0.000000 0.000000 -12.560947
						CHANNELS 6 Xposition Yposition Zposition Xrotation Yrotation Zrotation
						JOINT Haolin_V1:Solving:RightToeBaseEnd
						{
							OFFSET 0.000000 0.000000 -3.517768
							CHANNELS 6 Xposition Yposition Zposition Xrotation Yrotation Zrotation
							End Site
							{
								OFFSET 0.000000 -3.517769 0.000004
							}
						}
					}
				}
			}
		}
	}
	JOINT Haolin_V1:Solving:LeftUpLeg
	{
		OFFSET 10.695510 0.000000 0.000000
		CHANNELS 6 Xposition Yposition Zposition Xrotation Yrotation Zrotation
		JOINT Haolin_V1:Solving:LeftLeg
		{
			OFFSET 0.000000 46.236332 -0.000006
			CHANNELS 6 Xposition Yposition Zposition Xrotation Yrotation Zrotation
			JOINT Haolin_V1:Solving:LeftFoot
			{
				OFFSET 0.000000 41.248135 -0.000006
				CHANNELS 6 Xposition Yposition Zposition Xrotation Yrotation Zrotation
				JOINT Haolin_V1:Solving:LeftForeFoot
				{
					OFFSET 0.000000 3.207336 -0.000000
					CHANNELS 6 Xposition Yposition Zposition Xrotation Yrotation Zrotation
					JOINT Haolin_V1:Solving:LeftToeBase
					{
						OFFSET 0.000000 0.000000 -12.560947
						CHANNELS 6 Xposition Yposition Zposition Xrotation Yrotation Zrotation
						JOINT Haolin_V1:Solving:LeftToeBaseEnd
						{
							OFFSET 0.000000 0.000000 -3.901837
							CHANNELS 6 Xposition Yposition Zposition Xrotation Yrotation Zrotation
							End Site
							{
								OFFSET 0.000000 -3.901840 0.000004
							}
						}
					}
				}
			}
		}
	}
}
MOTION
Frames: 4
Frame Time: 0.041667
-20.121845 -74.577393 -91.654518 135.093943 13.774867 -16.537867 0.000003 -12.731930 2.520539 22.148869 -0.161983 -2.577085 0.000011 -8.486856 1.496462 17.628206 0.289454 -2.122546 -0.000004 -8.584973 0.751086 1.152597 3.815152 4.348392 -0.000004 -8.617767 0.000027 -6.654667 0.210548 2.474997 0.000002 -11.080002 -1.108003 11.550748 -3.963403 2.096399 -0.000002 -8.314005 -0.727383 1.129604 -13.988965 7.546552 -0.000007 -8.218971 -1.449242 -0.913715 -2.139527 4.371981 -0.000000 -9.728081 0.000005 0.000001 -0.000003 -0.000000 -0.000000 -7.914291 -5.288070 -0.000003 10.798579 14.994321 -20.201838 0.000003 -0.000006 -34.255598 -44.510331 -102.644540 -29.446463 -0.000009 -0.000003 63.426072 -41.811491 53.119870 -23.111885 0.000006 0.000004 -8.190099 18.471239 24.430755 -3.824360 2.925487 -2.843766 0.000003 0.000003 -0.000005 -10.198310 -0.000005 0.065371 -0.000001 0.000003 0.000001 0.000000 -7.914295 -5.288071 -0.000005 -11.313483 -14.474974 20.201834 -0.000008 0.000017 -25.656006 36.569116 91.719906 29.446466 -0.000020 -0.000003 107.753044 -26.771066 -54.594911 23.111889 -0.000005 -0.000008 196.419930 24.998620 -34.889477 3.824398 2.925472 -2.843758 0.000004 -0.000002 0.000004 10.198347 -0.000008 0.065366 -0.000002 0.000002 -0.000003 -10.695503 -0.000000 0.000035 -65.531847 6.155812 6.841114 0.000001 46.236343 -0.000020 20.464758 0.000005 0.000003 0.000008 41.248138 -0.000008 -1.964451 -1.368483 -9.838893 -0.000005 3.207336 -0.000005 -0.000000 0.000000 -0.000000 -0.000001 -0.000000 -12.560947 11.490890 0.000001 -0.000003 -0.000010 0.000007 -3.517776 0.000001 -0.000000 0.000000 10.695512 0.000016 0.000020 -64.495714 -10.952799 -2.817765 -0.000001 46.236336 -0.000026 21.847890 0.000001 0.000002 -0.000003 41.248146 -0.000008 -3.312583 -15.435876 -0.114677 -0.000001 3.207344 -0.000004 -0.000000 -0.000000 -0.000000 0.000002 -0.000007 -12.560960 15.533892 -0.000001 0.000000 -0.000004 0.000000 -3.901831 0.000000 0.000001 -0.000000 
-20.135269 -74.533051 -91.670685 134.801775 13.846154 -16.489552 0.000006 -12.731941 2.520492 22.241331 -0.184601 -2.588507 -0.000011 -8.486855 1.496474 17.637652 0.286751 -2.125676 -0.000005 -8.584981 0.751096 1.055549 3.850951 4.361081 0.000003 -8.617774 0.000009 -6.660032 0.210069 2.464027 0.000002 -11.080020 -1.107992 11.602183 -3.968191 2.288073 -0.000013 -8.314006 -0.727381 1.134348 -14.134317 7.544422 0.000004 -8.218991 -1.449235 -0.902039 -2.156686 4.395338 0.000005 -9.728081 0.000000 -0.000001 -0.000000 -0.000000 0.000005 -7.914307 -5.288094 -0.000003 10.754920 14.899935 -20.201838 -0.000002 -0.000015 -34.595991 -44.772225 -102.679771 -29.446453 -0.000016 -0.000008 62.824456 -41.814036 52.402431 -23.111902 -0.000001 0.000001 -8.125377 18.557438 24.161379 -3.824388 2.925480 -2.843765 0.000009 -0.000003 -0.000002 -10.198314 -0.000009 0.065364 0.000007 0.000003 -0.000003 0.000005 -7.914310 -5.288087 -0.000004 -11.325050 -14.111416 20.201826 0.000008 -0.000017 -25.351500 37.451423 90.904531 29.446463 -0.000013 -0.000008 107.066057 -26.049563 -55.043993 23.111910 0.000000 -0.000003 196.493464 24.968697 -35.046776 3.824347 2.925480 -2.843765 0.000001 -0.000002 -0.000002 10.198299 -0.000004 0.065381 -0.000001 0.000002 -0.000004 -10.695498 -0.000011 -0.000035 -65.165271 6.027562 6.835259 0.000003 46.236324 -0.000012 20.401425 0.000000 -0.000000 0.000012 41.248135 -0.000011 -2.009151 -1.243713 -9.872639 -0.000017 3.207344 -0.000000 -0.000000 -0.000001 -0.000000 -0.000008 -0.000021 -12.560947 11.812690 0.000001 0.000000 -0.000003 -0.000008 -3.517777 0.000001 -0.000003 0.000000 10.695514 -0.000014 -0.000011 -64.136419 -10.831276 -2.760026 -0.000003 46.236343 -0.000007 21.796985 0.000001 0.000001 0.000002 41.248142 -0.000009 -3.281730 -15.564922 -0.102394 0.000000 3.207336 -0.000013 -0.000000 0.000000 -0.000000 0.000001 -0.000001 -12.560959 15.522863 0.000001 -0.000000 -0.000002 0.000000 -3.901829 0.000001 -0.000001 0.000000 
-20.159986 -74.482101 -91.680588 134.483242 13.982149 -16.430717 0.000014 -12.731936 2.520497 22.301778 -0.190483 -2.557845 0.000012 -8.486865 1.496457 17.675271 0.273015 -2.109813 0.000005 -8.584984 0.751084 1.022629 3.784374 4.413336 -0.000002 -8.617772 0.000003 -6.662636 0.198258 2.411591 0.000007 -11.080009 -1.108000 11.630444 -3.990249 2.381210 -0.000002 -8.314013 -0.727391 1.084131 -14.213129 7.577167 0.000006 -8.218973 -1.449231 -0.915126 -2.174397 4.438656 -0.000001 -9.728081 -0.000001 -0.000001 0.000002 0.000000 0.000001 -7.914276 -5.288088 -0.000003 10.795621 14.808468 -20.201836 -0.000006 -0.000020 -34.971777 -45.060175 -102.719352 -29.446436 -0.000014 0.000004 62.159530 -41.849286 51.634181 -23.111864 0.000001 0.000011 -8.059250 18.630678 23.903949 -3.824376 2.925482 -2.843763 0.000007 -0.000007 0.000003 -10.198325 -0.000002 0.065367 0.000004 -0.000001 0.000001 0.000002 -7.914280 -5.288089 -0.000004 -11.311971 -13.809052 20.201824 -0.000005 -0.000020 -25.213918 38.153768 90.333883 29.446453 -0.000008 0.000013 106.569078 -25.408633 -55.261865 23.111887 -0.000016 0.000015 196.342571 24.821932 -34.933860 3.824364 2.925467 -2.843751 0.000002 0.000005 0.000001 10.198325 -0.000013 0.065381 0.000000 0.000003 -0.000002 -10.695499 -0.000010 -0.000011 -64.740228 5.899047 6.776294 -0.000003 46.236320 -0.000013 20.321819 0.000006 0.000000 -0.000009 41.248142 -0.000005 -2.083015 -1.119158 -9.934183 -0.000013 3.207321 0.000000 -0.000000 0.000003 -0.000001 0.000011 -0.000001 -12.560956 11.955745 0.000005 0.000000 0.000001 0.000008 -3.517766 0.000001 -0.000004 0.000000 10.695525 0.000001 -0.000023 -63.786262 -10.804443 -2.781757 0.000002 46.236359 -0.000021 21.844552 0.000000 0.000001 -0.000001 41.248146 -0.000005 -3.326145 -15.621478 -0.106217 0.000001 3.207336 0.000003 0.000000 -0.000000 0.000000 -0.000000 -0.000009 -12.560937 15.458762 -0.000001 -0.000000 0.000000 -0.000007 -3.901834 0.000001 -0.000000 -0.000000 
-20.262850 -74.575775 -91.666412 134.580517 13.976300 -16.024667 0.000007 -12.731956 2.520523 22.354695 -0.038939 -2.640928 0.000001 -8.486856 1.496463 17.218171 0.275768 -2.159235 -0.000004 -8.584985 0.751111 0.711956 3.393527 4.086054 -0.000002 -8.617766 0.000015 -6.535496 0.109511 2.619383 -0.000005 -11.080009 -1.107994 11.786186 -4.080054 2.472394 0.000006 -8.313993 -0.727369 1.073097 -14.324671 7.621574 -0.000004 -8.218970 -1.449230 -0.947685 -2.190350 4.459541 -0.000003 -9.728081 -0.000008 0.000001 0.000001 -0.000001 -0.000003 -7.914299 -5.288085 -0.000003 10.700489 14.780505 -20.201832 -0.000003 -0.000019 -35.062110 -45.349833 -102.774123 -29.446455 -0.000015 -0.000010 61.498832 -41.900458 50.887170 -23.111883 -0.000007 0.000001 -7.998062 18.755208 23.605093 -3.824383 2.925478 -2.843773 0.000002 -0.000002 -0.000006 -10.198350 -0.000003 0.065357 -0.000004 -0.000000 -0.000001 -0.000003 -7.914295 -5.288085 -0.000004 -11.408483 -13.536222 20.201826 0.000010 -0.000007 -24.934362 38.884571 89.880782 29.446459 -0.000002 0.000009 106.245355 -24.898500 -55.312538 23.111900 -0.000010 -0.000005 196.147132 24.631315 -34.786710 3.824364 2.925474 -2.843757 0.000000 -0.000002 0.000001 10.198322 -0.000009 0.065381 -0.000004 -0.000001 0.000004 -10.695503 -0.000009 0.000008 -64.697963 6.013106 6.421920 0.000010 46.236347 -0.000018 20.178641 0.000003 0.000002 0.000016 41.248135 0.000005 -1.959293 -0.824770 -9.785676 0.000005 3.207344 -0.000001 0.000001 -0.000001 -0.000001 0.000008 0.000015 -12.560946 11.979403 -0.000002 0.000000 -0.000011 -0.000000 -3.517767 0.000002 -0.000004 0.000001 10.695524 -0.000012 -0.000003 -64.168999 -10.422432 -3.108359 0.000000 46.236340 -0.000009 22.178463 0.000001 0.000001 0.000001 41.248161 -0.000004 -3.401501 -15.576205 -0.048991 -0.000002 3.207336 -0.000009 0.000000 -0.000001 -0.000000 -0.000000 0.000001 -12.560946 15.816980 0.000000 -0.000000 -0.000001 0.000000 -3.901832 0.000001 -0.000000 0.000000 
